<svg xmlns="http://www.w3.org/2000/svg" viewBox="0 0 32 32"><rect width="32" height="32" rx="6" fill="#151a1d"/><g fill="none" stroke="#18c7b7" stroke-width="1.4" stroke-linecap="round" stroke-linejoin="round"><path d="M10 14 Q10 11 13 10 Q16 9.5 19 10 Q22 11 22 14" /><path d="M10 14 Q10 18 12 20 Q16 22 20 20 Q22 18 22 14" /><circle cx="12.5" cy="13" r="1" fill="#18c7b7" stroke="none" /><circle cx="19.5" cy="13" r="1" fill="#18c7b7" stroke="none" /><path d="M10 12 L6 9" /><path d="M22 12 L26 9" /><path d="M9 15 L5 15" /><path d="M23 15 L27 15" /><path d="M6 9 L4.5 7.5" /><path d="M26 9 L27.5 7.5" /><path d="M12 20 L9 23" /><path d="M20 20 L23 23" /></g></svg>
